# xmcd
#
# Track frame offsets: 
#        150
#        14143
#        29355
#        43750
#        75333
#        103182
#        124478
#
# Disc length: 1940 seconds
#
# Revision: 2
# Processed by: cddbd v1.5.2PL0 Copyright (c) Steve Scherf et al.
# Submitted via: ExactAudioCopy v0.99pb5
#
DISCID=5a079207
DTITLE=Billy More - I Keep On Burning
DYEAR=2003
DGENRE=Euro-House
TTITLE0=I Keep On Burning (Original Radio)
TTITLE1=I Keep On Burning (Denis The Menace Radio Mix)
TTITLE2=I Keep On Burning ('94 Radio)
TTITLE3=I Keep On Burning (Tom Novy Remix)
TTITLE4=I Keep On Burning (Denis The Menace Club Mix)
TTITLE5=I Keep On Burning (Original Extended)
TTITLE6=I Keep On Burning ('94 Mix)
EXTD=
EXTT0=
EXTT1=
EXTT2=
EXTT3=
EXTT4=
EXTT5=
EXTT6=
PLAYORDER=
